<svg version="1.2" xmlns="http://www.w3.org/2000/svg" viewBox="0 0 24 24" width="24" height="24"><style>tspan{white-space:pre}.a{fill:#fff}</style><path class="a" d="m23.7 12.6v8.3c0 1.6-1.2 2.8-2.8 2.8h-17.8c-1.6 0-2.8-1.2-2.8-2.8v-8.3c0-1.6 1.2-2.8 2.8-2.8h2.4c0.8 0 1.5 0.5 1.6 1.2 0.6 2.2 2.5 3.8 4.9 3.8 2.4 0 4.3-1.6 4.9-3.8 0.1-0.7 0.8-1.2 1.6-1.2h2c2 0 3.2 1.2 3.2 2.8zm-12.5-0.9l-4.2-4.2c-0.7-0.7-0.2-1.9 0.8-1.9h2v-4.2c0-0.6 0.5-1.1 1.1-1.1h2.2c0.6 0 1.1 0.5 1.1 1.1v4.2h2c1 0 1.5 1.2 0.8 1.9l-4.2 4.2c-0.5 0.4-1.2 0.4-1.6 0z"/></svg>